<mxfile host="app.diagrams.net" agent="Mozilla/5.0 (Windows NT 10.0; Win64; x64) AppleWebKit/537.36 (KHTML, like Gecko) Chrome/135.0.0.0 Safari/537.36" version="26.2.12">
  <diagram name="Page-1" id="ZQJ5BmxLvQbKDv_jihC1">
    <mxGraphModel dx="1044" dy="562" grid="1" gridSize="10" guides="1" tooltips="1" connect="1" arrows="1" fold="1" page="1" pageScale="1" pageWidth="850" pageHeight="1100" math="0" shadow="0">
      <root>
        <mxCell id="0" />
        <mxCell id="1" parent="0" />
        <mxCell id="_G4Jz8KAFKx2trIGYzBL-1" value="" style="edgeStyle=orthogonalEdgeStyle;rounded=0;orthogonalLoop=1;jettySize=auto;html=1;fontSize=14;" edge="1" parent="1" source="_G4Jz8KAFKx2trIGYzBL-2" target="_G4Jz8KAFKx2trIGYzBL-5">
          <mxGeometry relative="1" as="geometry" />
        </mxCell>
        <mxCell id="_G4Jz8KAFKx2trIGYzBL-2" value="Start" style="strokeWidth=2;html=1;shape=mxgraph.flowchart.start_1;whiteSpace=wrap;fontSize=14;" vertex="1" parent="1">
          <mxGeometry x="375" y="295" width="100" height="60" as="geometry" />
        </mxCell>
        <mxCell id="_G4Jz8KAFKx2trIGYzBL-3" value="End" style="strokeWidth=2;html=1;shape=mxgraph.flowchart.start_1;whiteSpace=wrap;fontSize=14;" vertex="1" parent="1">
          <mxGeometry x="375" y="935" width="100" height="60" as="geometry" />
        </mxCell>
        <mxCell id="_G4Jz8KAFKx2trIGYzBL-4" value="" style="edgeStyle=orthogonalEdgeStyle;rounded=0;orthogonalLoop=1;jettySize=auto;html=1;fontSize=14;" edge="1" parent="1" source="_G4Jz8KAFKx2trIGYzBL-5" target="_G4Jz8KAFKx2trIGYzBL-7">
          <mxGeometry relative="1" as="geometry" />
        </mxCell>
        <mxCell id="_G4Jz8KAFKx2trIGYzBL-5" value="int i = 10" style="whiteSpace=wrap;html=1;strokeWidth=2;fontSize=14;" vertex="1" parent="1">
          <mxGeometry x="365" y="395" width="120" height="60" as="geometry" />
        </mxCell>
        <mxCell id="_G4Jz8KAFKx2trIGYzBL-6" value="" style="edgeStyle=orthogonalEdgeStyle;rounded=0;orthogonalLoop=1;jettySize=auto;html=1;fontSize=14;" edge="1" parent="1" source="_G4Jz8KAFKx2trIGYzBL-7" target="_G4Jz8KAFKx2trIGYzBL-9">
          <mxGeometry relative="1" as="geometry" />
        </mxCell>
        <mxCell id="_G4Jz8KAFKx2trIGYzBL-7" value="Print i" style="shape=parallelogram;perimeter=parallelogramPerimeter;whiteSpace=wrap;html=1;fixedSize=1;strokeWidth=2;fontSize=14;" vertex="1" parent="1">
          <mxGeometry x="365" y="485" width="120" height="60" as="geometry" />
        </mxCell>
        <mxCell id="_G4Jz8KAFKx2trIGYzBL-8" value="" style="edgeStyle=orthogonalEdgeStyle;rounded=0;orthogonalLoop=1;jettySize=auto;html=1;fontSize=14;" edge="1" parent="1" source="_G4Jz8KAFKx2trIGYzBL-9" target="_G4Jz8KAFKx2trIGYzBL-14">
          <mxGeometry relative="1" as="geometry" />
        </mxCell>
        <mxCell id="_G4Jz8KAFKx2trIGYzBL-9" value="i = i - 2" style="whiteSpace=wrap;html=1;strokeWidth=2;fontSize=14;" vertex="1" parent="1">
          <mxGeometry x="365" y="585" width="120" height="60" as="geometry" />
        </mxCell>
        <mxCell id="_G4Jz8KAFKx2trIGYzBL-10" value="" style="edgeStyle=orthogonalEdgeStyle;rounded=0;orthogonalLoop=1;jettySize=auto;html=1;entryX=0;entryY=0.5;entryDx=0;entryDy=0;fontSize=14;" edge="1" parent="1" source="_G4Jz8KAFKx2trIGYzBL-14" target="_G4Jz8KAFKx2trIGYzBL-7">
          <mxGeometry relative="1" as="geometry">
            <mxPoint x="325" y="725" as="targetPoint" />
            <Array as="points">
              <mxPoint x="240" y="725" />
              <mxPoint x="240" y="515" />
            </Array>
          </mxGeometry>
        </mxCell>
        <mxCell id="_G4Jz8KAFKx2trIGYzBL-11" value="True" style="edgeLabel;html=1;align=center;verticalAlign=middle;resizable=0;points=[];fontSize=14;" vertex="1" connectable="0" parent="_G4Jz8KAFKx2trIGYzBL-10">
          <mxGeometry x="-0.7437" relative="1" as="geometry">
            <mxPoint as="offset" />
          </mxGeometry>
        </mxCell>
        <mxCell id="_G4Jz8KAFKx2trIGYzBL-12" value="" style="edgeStyle=orthogonalEdgeStyle;rounded=0;orthogonalLoop=1;jettySize=auto;html=1;fontSize=14;" edge="1" parent="1" source="_G4Jz8KAFKx2trIGYzBL-14" target="_G4Jz8KAFKx2trIGYzBL-16">
          <mxGeometry relative="1" as="geometry" />
        </mxCell>
        <mxCell id="_G4Jz8KAFKx2trIGYzBL-13" value="False" style="edgeLabel;html=1;align=center;verticalAlign=middle;resizable=0;points=[];fontSize=14;" vertex="1" connectable="0" parent="_G4Jz8KAFKx2trIGYzBL-12">
          <mxGeometry x="-0.184" y="2" relative="1" as="geometry">
            <mxPoint as="offset" />
          </mxGeometry>
        </mxCell>
        <mxCell id="_G4Jz8KAFKx2trIGYzBL-14" value="i&amp;nbsp; &amp;gt;= 2" style="rhombus;whiteSpace=wrap;html=1;strokeWidth=2;fontSize=14;" vertex="1" parent="1">
          <mxGeometry x="385" y="685" width="80" height="80" as="geometry" />
        </mxCell>
        <mxCell id="_G4Jz8KAFKx2trIGYzBL-15" value="" style="edgeStyle=orthogonalEdgeStyle;rounded=0;orthogonalLoop=1;jettySize=auto;html=1;fontSize=14;" edge="1" parent="1" source="_G4Jz8KAFKx2trIGYzBL-16" target="_G4Jz8KAFKx2trIGYzBL-3">
          <mxGeometry relative="1" as="geometry" />
        </mxCell>
        <mxCell id="_G4Jz8KAFKx2trIGYzBL-16" value="" style="ellipse;whiteSpace=wrap;html=1;strokeWidth=2;fontSize=14;" vertex="1" parent="1">
          <mxGeometry x="385" y="815" width="80" height="80" as="geometry" />
        </mxCell>
        <mxCell id="_G4Jz8KAFKx2trIGYzBL-18" value="&lt;div style=&quot;color: #cccccc;background-color: #1f1f1f;font-family: Consolas, &#39;Courier New&#39;, monospace;font-weight: normal;font-size: 14px;line-height: 19px;white-space: pre;&quot;&gt;&lt;div&gt;&lt;span style=&quot;color: #6a9955;&quot;&gt;// Print 10 8 6 4 2&lt;/span&gt;&lt;/div&gt;&lt;br&gt;&lt;div&gt;&lt;span style=&quot;color: #6a9955;&quot;&gt;// Step 1: Start&lt;/span&gt;&lt;/div&gt;&lt;div&gt;&lt;span style=&quot;color: #6a9955;&quot;&gt;// Step 2: Intialize variable i by 10&lt;/span&gt;&lt;/div&gt;&lt;div&gt;&lt;span style=&quot;color: #6a9955;&quot;&gt;// Step 3: Print i&lt;/span&gt;&lt;/div&gt;&lt;div&gt;&lt;span style=&quot;color: #6a9955;&quot;&gt;// Step 4: Decrement i by 2, i = i - 2&lt;/span&gt;&lt;/div&gt;&lt;div&gt;&lt;span style=&quot;color: #6a9955;&quot;&gt;// Step 5: Check the condition if (i &amp;gt;= 2) &lt;/span&gt;&lt;/div&gt;&lt;div&gt;&lt;span style=&quot;color: #6a9955;&quot;&gt;// Step 6: If the condition is true, go to step 3 otherwise go to step 7&lt;/span&gt;&lt;/div&gt;&lt;div&gt;&lt;span style=&quot;color: #6a9955;&quot;&gt;// Step 7: End&lt;/span&gt;&lt;/div&gt;&lt;/div&gt;" style="text;whiteSpace=wrap;html=1;" vertex="1" parent="1">
          <mxGeometry x="40" y="40" width="560" height="190" as="geometry" />
        </mxCell>
      </root>
    </mxGraphModel>
  </diagram>
</mxfile>
